{
.appVersion = "3151";
DisplayStrings = (

glyphs = (
{
glyphname = A;
lastChange = "2023-04-24 01:52:30 +0000";
layers = (
{
layerId = "69FA6F11-E000-4957-8B5E-754D211BB72B";
paths = (
{
closed = 1;
nodes = (
"199 496 OFFCURVE",
"183 437 OFFCURVE",
"183 351 CURVE",
"225 328 OFFCURVE",
"258 323 OFFCURVE",
"267 287 CURVE",
"273 323 OFFCURVE",
"255 340 OFFCURVE",
"239 508 CURVE",
"238 515 OFFCURVE",
"216 517 OFFCURVE",
"213 526 CURVE"
);
},
{
closed = 1;
nodes = (
"138 657 OFFCURVE",
"228 647 OFFCURVE",
"293 655 CURVE",
"305 656 OFFCURVE",
"317 630 OFFCURVE",
"349 581 CURVE",
"379 535 OFFCURVE",
"402 308 OFFCURVE",
"406 -4 CURVE",
"386 -8 OFFCURVE",
"352 -10 OFFCURVE",
"333 -4 CURVE",
"326 1 OFFCURVE",
"319 13 OFFCURVE",
"298 50 CURVE",
"290 63 OFFCURVE",
"279 30 OFFCURVE",
"268 195 CURVE",
"252 220 OFFCURVE",
"172 245 OFFCURVE",
"140 231 CURVE",
"122 212 OFFCURVE",
"112 113 OFFCURVE",
"117 0 CURVE",
"89 -5 OFFCURVE",
"8 -5 OFFCURVE",
"21 10 CURVE",
"33 98 OFFCURVE",
"37 288 OFFCURVE",
"32 390 CURVE",
"51 425 OFFCURVE",
"68 513 OFFCURVE",
"80 624 CURVE",
"85 633 OFFCURVE",
"85 647 OFFCURVE",
"105 655 CURVE"
);
}
);
width = 426;
}
);
unicode = "0041,0061";
},
{
glyphname = B;
lastChange = "2023-04-24 01:46:26 +0000";
layers = (
{
layerId = "69FA6F11-E000-4957-8B5E-754D211BB72B";
paths = (
{
closed = 1;
nodes = (
"269 297 OFFCURVE",
"215 245 OFFCURVE",
"161 149 CURVE",
"162 138 OFFCURVE",
"152 65 OFFCURVE",
"163 25 CURVE",
"231 19 OFFCURVE",
"309 35 OFFCURVE",
"351 57 CURVE",
"383 111 OFFCURVE",
"394 221 OFFCURVE",
"383 346 CURVE",
"373 350 OFFCURVE",
"332 334 OFFCURVE",
"313 330 CURVE"
);
},
{
closed = 1;
nodes = (
"116 597 OFFCURVE",
"131 495 OFFCURVE",
"127 349 CURVE",
"154 343 OFFCURVE",
"252 336 OFFCURVE",
"208 349 CURVE",
"200 321 OFFCURVE",
"192 261 OFFCURVE",
"189 335 CURVE",
"187 383 OFFCURVE",
"183 468 OFFCURVE",
"190 614 CURVE",
"177 637 OFFCURVE",
"128 640 OFFCURVE",
"116 650 CURVE"
);
},
{
closed = 1;
nodes = (
"41 653 OFFCURVE",
"233 652 OFFCURVE",
"335 652 CURVE",
"350 652 OFFCURVE",
"373 652 OFFCURVE",
"396 651 CURVE",
"417 642 OFFCURVE",
"435 629 OFFCURVE",
"431 588 CURVE",
"427 536 OFFCURVE",
"401 476 OFFCURVE",
"410 380 CURVE",
"412 355 OFFCURVE",
"430 322 OFFCURVE",
"430 227 CURVE",
"430 191 OFFCURVE",
"425 80 OFFCURVE",
"381 5 CURVE",
"364 -1 OFFCURVE",
"187 -8 OFFCURVE",
"39 -2 CURVE",
"24 77 OFFCURVE",
"22 303 OFFCURVE",
"25 653 CURVE"
);
}
);
width = 456;
}
);
unicode = "0042,0062";
},
{
glyphname = C;
lastChange = "2023-04-24 02:11:15 +0000";
layers = (
{
layerId = "69FA6F11-E000-4957-8B5E-754D211BB72B";
paths = (
{
closed = 1;
nodes = (
"286 683 LINE",
"297 683 OFFCURVE",
"306 659 OFFCURVE",
"334 623 CURVE",
"358 592 OFFCURVE",
"386 575 OFFCURVE",
"379 516 CURVE",
"377 499 OFFCURVE",
"356 494 OFFCURVE",
"338 464 CURVE",
"316 446 OFFCURVE",
"294 415 OFFCURVE",
"264 400 CURVE",
"258 404 OFFCURVE",
"247 409 OFFCURVE",
"232 442 CURVE",
"225 457 OFFCURVE",
"220 470 OFFCURVE",
"218 509 CURVE",
"217 525 OFFCURVE",
"214 543 OFFCURVE",
"189 557 CURVE",
"167 554 OFFCURVE",
"151 535 OFFCURVE",
"143 490 CURVE",
"137 458 OFFCURVE",
"136 428 OFFCURVE",
"139 352 CURVE",
"140 315 OFFCURVE",
"139 283 OFFCURVE",
"155 212 CURVE",
"162 176 OFFCURVE",
"177 161 OFFCURVE",
"205 137 CURVE",
"218 137 OFFCURVE",
"234 145 OFFCURVE",
"240 174 CURVE",
"245 200 OFFCURVE",
"249 212 OFFCURVE",
"256 240 CURVE",
"263 250 OFFCURVE",
"293 258 OFFCURVE",
"306 260 CURVE",
"319 255 OFFCURVE",
"347 236 OFFCURVE",
"357 202 CURVE",
"363 183 OFFCURVE",
"367 161 OFFCURVE",
"367 110 CURVE",
"368 84 OFFCURVE",
"358 54 OFFCURVE",
"344 24 CURVE",
"333 18 OFFCURVE",
"211 18 OFFCURVE",
"301 21 CURVE",
"287 22 OFFCURVE",
"204 9 OFFCURVE",
"239 0 CURVE",
"219 -5 OFFCURVE",
"190 -10 OFFCURVE",
"171 -13 CURVE",
"151 -17 OFFCURVE",
"107 -5 OFFCURVE",
"87 21 CURVE",
"70 43 OFFCURVE",
"53 83 OFFCURVE",
"45 115 CURVE",
"33 162 OFFCURVE",
"15 183 OFFCURVE",
"22 258 CURVE",
"25 285 OFFCURVE",
"29 325 OFFCURVE",
"50 379 CURVE",
"59 402 OFFCURVE",
"71 422 OFFCURVE",
"91 473 CURVE",
"101 499 OFFCURVE",
"118 519 OFFCURVE",
"141 573 CURVE",
"160 594 OFFCURVE",
"181 619 OFFCURVE",
"210 646 CURVE",
"253 650 OFFCURVE",
"310 652 OFFCURVE",
"348 653 CURVE"
);
}
);
width = 400;
}
);
unicode = "0043,0063";
},
{
glyphname = D;
lastChange = "2023-04-24 01:47:30 +0000";
layers = (
{
layerId = "69FA6F11-E000-4957-8B5E-754D211BB72B";
paths = (
{
closed = 1;
nodes = (
"194 438 OFFCURVE",
"176 327 OFFCURVE",
"175 398 CURVE",
"165 353 OFFCURVE",
"156 271 OFFCURVE",
"155 153 CURVE",
"176 147 OFFCURVE",
"237 121 OFFCURVE",
"250 161 CURVE",
"257 183 OFFCURVE",
"252 319 OFFCURVE",
"258 433 CURVE",
"258 441 OFFCURVE",
"220 437 OFFCURVE",
"210 438 CURVE"
);
},
{
closed = 1;
nodes = (
"55 652 OFFCURVE",
"191 644 OFFCURVE",
"293 652 CURVE",
"310 653 OFFCURVE",
"360 650 OFFCURVE",
"378 585 CURVE",
"389 547 OFFCURVE",
"408 486 OFFCURVE",
"405 431 CURVE",
"405 413 OFFCURVE",
"408 257 OFFCURVE",
"392 92 CURVE",
"388 60 OFFCURVE",
"350 34 OFFCURVE",
"322 3 CURVE",
"307 -2 OFFCURVE",
"153 -1 OFFCURVE",
"31 -1 CURVE",
"17 69 OFFCURVE",
"26 281 OFFCURVE",
"39 652 CURVE"
);
}
);
width = 429;
}
);
unicode = "0044,0064";
},
{
glyphname = E;
lastChange = "2023-04-24 02:11:44 +0000";
layers = (
{
layerId = "69FA6F11-E000-4957-8B5E-754D211BB72B";
paths = (
{
closed = 1;
nodes = (
"4 650 LINE",
"95 650 OFFCURVE",
"185 650 OFFCURVE",
"322 650 CURVE",
"329 642 OFFCURVE",
"337 626 OFFCURVE",
"325 587 CURVE",
"317 560 OFFCURVE",
"281 536 OFFCURVE",
"276 509 CURVE",
"225 504 OFFCURVE",
"173 499 OFFCURVE",
"137 490 CURVE",
"123 481 OFFCURVE",
"122 454 OFFCURVE",
"118 452 CURVE",
"117 457 OFFCURVE",
"114 460 OFFCURVE",
"110 474 CURVE",
"106 479 OFFCURVE",
"105 481 OFFCURVE",
"104 466 CURVE",
"104 454 OFFCURVE",
"105 408 OFFCURVE",
"111 398 CURVE",
"133 411 OFFCURVE",
"222 418 OFFCURVE",
"277 444 CURVE",
"295 432 OFFCURVE",
"298 410 OFFCURVE",
"311 350 CURVE",
"317 322 OFFCURVE",
"320 311 OFFCURVE",
"324 278 CURVE",
"277 272 OFFCURVE",
"222 267 OFFCURVE",
"248 277 CURVE",
"268 286 OFFCURVE",
"290 283 OFFCURVE",
"288 277 CURVE",
"279 271 OFFCURVE",
"202 263 OFFCURVE",
"182 247 CURVE",
"170 237 OFFCURVE",
"157 224 OFFCURVE",
"161 185 CURVE",
"163 166 OFFCURVE",
"171 124 OFFCURVE",
"180 115 CURVE",
"237 136 OFFCURVE",
"311 155 OFFCURVE",
"346 165 CURVE",
"360 155 OFFCURVE",
"381 132 OFFCURVE",
"376 84 CURVE",
"373 58 OFFCURVE",
"337 36 OFFCURVE",
"316 9 CURVE",
"240 2 OFFCURVE",
"147 0 OFFCURVE",
"63 -1 CURVE",
"58 -1 OFFCURVE",
"49 232 OFFCURVE",
"51 579 CURVE"
);
}
);
width = 389;
}
);
unicode = "0045,0065";
},
{
glyphname = F;
lastChange = "2023-04-24 03:04:26 +0000";
layers = (
{
layerId = "69FA6F11-E000-4957-8B5E-754D211BB72B";
paths = (
{
closed = 1;
nodes = (
"114 650 OFFCURVE",
"201 650 OFFCURVE",
"327 650 CURVE",
"333 642 OFFCURVE",
"340 627 OFFCURVE",
"329 579 CURVE",
"324 554 OFFCURVE",
"317 529 OFFCURVE",
"307 499 CURVE",
"298 495 OFFCURVE",
"203 494 OFFCURVE",
"160 491 CURVE",
"148 470 OFFCURVE",
"146 439 OFFCURVE",
"140 455 CURVE",
"141 459 OFFCURVE",
"140 464 OFFCURVE",
"148 476 CURVE",
"152 482 OFFCURVE",
"158 486 OFFCURVE",
"165 493 CURVE",
"173 497 OFFCURVE",
"189 499 OFFCURVE",
"197 505 CURVE",
"205 511 OFFCURVE",
"217 514 OFFCURVE",
"218 521 CURVE",
"215 525 OFFCURVE",
"202 526 OFFCURVE",
"186 524 CURVE",
"161 520 OFFCURVE",
"144 510 OFFCURVE",
"150 490 CURVE",
"154 475 OFFCURVE",
"177 457 OFFCURVE",
"197 430 CURVE",
"227 415 OFFCURVE",
"263 407 OFFCURVE",
"281 400 CURVE",
"302 400 OFFCURVE",
"322 406 OFFCURVE",
"334 407 CURVE",
"345 408 OFFCURVE",
"360 345 OFFCURVE",
"365 388 CURVE",
"375 401 OFFCURVE",
"387 338 OFFCURVE",
"394 345 CURVE",
"397 358 OFFCURVE",
"409 364 OFFCURVE",
"411 320 CURVE",
"411 300 OFFCURVE",
"389 286 OFFCURVE",
"377 246 CURVE",
"359 189 OFFCURVE",
"289 137 OFFCURVE",
"262 162 CURVE",
"250 174 OFFCURVE",
"231 190 OFFCURVE",
"216 200 CURVE",
"201 191 OFFCURVE",
"188 179 OFFCURVE",
"185 147 CURVE",
"184 129 OFFCURVE",
"189 64 OFFCURVE",
"181 11 CURVE",
"179 2 OFFCURVE",
"171 -1 OFFCURVE",
"168 -2 CURVE",
"163 -3 OFFCURVE",
"81 -8 OFFCURVE",
"51 -3 CURVE",
"43 -2 OFFCURVE",
"35 13 OFFCURVE",
"35 27 CURVE",
"32 107 OFFCURVE",
"20 275 OFFCURVE",
"30 379 CURVE",
"35 427 OFFCURVE",
"8 487 OFFCURVE",
"26 650 CURVE"
);
}
);
width = 419;
}
);
unicode = "0046,0066";
},
{
glyphname = G;
lastChange = "2023-04-23 02:25:39 +0000";
layers = (
{
layerId = "69FA6F11-E000-4957-8B5E-754D211BB72B";
paths = (
{
closed = 1;
nodes = (
"314 651 OFFCURVE",
"311 633 OFFCURVE",
"341 599 CURVE",
"366 572 OFFCURVE",
"376 558 OFFCURVE",
"387 512 CURVE",
"391 494 OFFCURVE",
"398 483 OFFCURVE",
"393 439 CURVE",
"391 420 OFFCURVE",
"289 356 OFFCURVE",
"232 279 CURVE",
"224 268 OFFCURVE",
"208 259 OFFCURVE",
"190 241 CURVE",
"178 228 OFFCURVE",
"167 214 OFFCURVE",
"160 183 CURVE",
"156 167 OFFCURVE",
"150 156 OFFCURVE",
"167 125 CURVE",
"178 105 OFFCURVE",
"216 104 OFFCURVE",
"214 96 CURVE",
"224 97 OFFCURVE",
"235 101 OFFCURVE",
"241 117 CURVE",
"244 126 OFFCURVE",
"246 141 OFFCURVE",
"250 173 CURVE",
"252 193 OFFCURVE",
"236 201 OFFCURVE",
"232 216 CURVE",
"218 231 OFFCURVE",
"208 254 OFFCURVE",
"206 291 CURVE",
"205 319 OFFCURVE",
"314 316 OFFCURVE",
"347 342 CURVE",
"366 331 OFFCURVE",
"389 318 OFFCURVE",
"381 273 CURVE",
"379 258 OFFCURVE",
"371 242 OFFCURVE",
"358 194 CURVE",
"352 170 OFFCURVE",
"348 147 OFFCURVE",
"339 97 CURVE",
"334 71 OFFCURVE",
"325 45 OFFCURVE",
"319 17 CURVE",
"310 11 OFFCURVE",
"301 9 OFFCURVE",
"287 6 CURVE",
"272 4 OFFCURVE",
"220 8 OFFCURVE",
"210 2 CURVE",
"199 -1 OFFCURVE",
"157 -7 OFFCURVE",
"140 -10 CURVE",
"123 -12 OFFCURVE",
"87 7 OFFCURVE",
"67 36 CURVE",
"55 55 OFFCURVE",
"50 74 OFFCURVE",
"41 121 CURVE",
"34 162 OFFCURVE",
"18 187 OFFCURVE",
"20 254 CURVE",
"21 275 OFFCURVE",
"24 308 OFFCURVE",
"42 358 CURVE",
"50 381 OFFCURVE",
"59 392 OFFCURVE",
"75 440 CURVE",
"82 460 OFFCURVE",
"93 493 OFFCURVE",
"111 532 CURVE",
"130 547 OFFCURVE",
"143 570 OFFCURVE",
"166 592 CURVE",
"206 598 OFFCURVE",
"235 660 OFFCURVE",
"290 657 CURVE"
);
}
);
width = 415;
}
);
unicode = "0047,0067";
},
{
glyphname = H;
lastChange = "2023-04-24 01:32:38 +0000";
layers = (
{
layerId = "69FA6F11-E000-4957-8B5E-754D211BB72B";
paths = (
{
closed = 1;
nodes = (
"37 650 OFFCURVE",
"138 650 OFFCURVE",
"178 650 CURVE",
"185 607 OFFCURVE",
"192 546 OFFCURVE",
"175 443 CURVE",
"202 438 OFFCURVE",
"290 393 OFFCURVE",
"315 356 CURVE",
"332 400 OFFCURVE",
"347 449 OFFCURVE",
"352 622 CURVE",
"353 636 OFFCURVE",
"421 634 OFFCURVE",
"451 640 CURVE",
"459 628 OFFCURVE",
"461 614 OFFCURVE",
"462 574 CURVE",
"462 461 OFFCURVE",
"423 299 OFFCURVE",
"438 6 CURVE",
"439 -1 OFFCURVE",
"400 -6 OFFCURVE",
"383 -5 CURVE",
"371 -4 OFFCURVE",
"323 10 OFFCURVE",
"318 41 CURVE",
"314 73 OFFCURVE",
"308 88 OFFCURVE",
"296 240 CURVE",
"266 242 OFFCURVE",
"185 243 OFFCURVE",
"167 250 CURVE",
"162 193 OFFCURVE",
"154 112 OFFCURVE",
"159 0 CURVE",
"139 -5 OFFCURVE",
"104 -11 OFFCURVE",
"81 -8 CURVE",
"72 -7 OFFCURVE",
"56 2 OFFCURVE",
"42 14 CURVE",
"35 87 OFFCURVE",
"0 270 OFFCURVE",
"37 602 CURVE",
"39 620 OFFCURVE",
"19 635 OFFCURVE",
"24 650 CURVE"
);
}
);
width = 482;
}
);
unicode = "0048,0068";
},
{
glyphname = I;
lastChange = "2023-04-24 02:16:17 +0000";
layers = (
{
layerId = "69FA6F11-E000-4957-8B5E-754D211BB72B";
paths = (
{
closed = 1;
nodes = (
"78 652 OFFCURVE",
"114 641 OFFCURVE",
"132 651 CURVE",
"140 644 OFFCURVE",
"151 639 OFFCURVE",
"167 616 CURVE",
"184 591 OFFCURVE",
"149 528 OFFCURVE",
"180 297 CURVE",
"192 214 OFFCURVE",
"164 143 OFFCURVE",
"162 0 CURVE",
"155 -6 OFFCURVE",
"108 -12 OFFCURVE",
"82 -9 CURVE",
"72 -8 OFFCURVE",
"53 0 OFFCURVE",
"42 17 CURVE",
"25 84 OFFCURVE",
"35 293 OFFCURVE",
"36 389 CURVE",
"37 434 OFFCURVE",
"32 526 OFFCURVE",
"47 651 CURVE"
);
}
);
width = 215;
}
);
unicode = "0049,0069";
},
{
glyphname = J;
lastChange = "2023-04-24 01:33:16 +0000";
layers = (
{
layerId = "69FA6F11-E000-4957-8B5E-754D211BB72B";
paths = (
{
closed = 1;
nodes = (
"153 650 OFFCURVE",
"219 650 OFFCURVE",
"258 650 CURVE",
"268 650 OFFCURVE",
"276 633 OFFCURVE",
"293 605 CURVE",
"310 576 OFFCURVE",
"319 517 OFFCURVE",
"321 272 CURVE",
"322 205 OFFCURVE",
"299 137 OFFCURVE",
"283 42 CURVE",
"271 23 OFFCURVE",
"159 14 OFFCURVE",
"196 3 CURVE",
"210 -1 OFFCURVE",
"167 -13 OFFCURVE",
"155 -14 CURVE",
"121 -16 OFFCURVE",
"86 7 OFFCURVE",
"64 35 CURVE",
"40 66 OFFCURVE",
"29 82 OFFCURVE",
"21 147 CURVE",
"19 161 OFFCURVE",
"18 188 OFFCURVE",
"40 219 CURVE",
"65 225 OFFCURVE",
"87 219 OFFCURVE",
"106 186 CURVE",
"115 171 OFFCURVE",
"119 156 OFFCURVE",
"144 132 CURVE",
"167 125 OFFCURVE",
"183 148 OFFCURVE",
"189 198 CURVE",
"198 275 OFFCURVE",
"204 408 OFFCURVE",
"202 607 CURVE",
"199 615 OFFCURVE",
"184 626 OFFCURVE",
"169 635 CURVE",
"164 635 OFFCURVE",
"154 596 OFFCURVE",
"147 559 CURVE",
"129 550 OFFCURVE",
"109 564 OFFCURVE",
"113 583 CURVE",
"120 614 OFFCURVE",
"102 611 OFFCURVE",
"124 650 CURVE"
);
}
);
width = 341;
}
);
unicode = "004A,006A";
},
{
glyphname = K;
lastChange = "2023-04-24 02:18:38 +0000";
layers = (
{
layerId = "69FA6F11-E000-4957-8B5E-754D211BB72B";
paths = (
{
closed = 1;
nodes = (
"32 658 OFFCURVE",
"142 643 OFFCURVE",
"183 652 CURVE",
"184 612 OFFCURVE",
"176 562 OFFCURVE",
"183 460 CURVE",
"211 446 OFFCURVE",
"292 427 OFFCURVE",
"330 643 CURVE",
"359 637 OFFCURVE",
"423 634 OFFCURVE",
"439 621 CURVE",
"435 595 OFFCURVE",
"392 574 OFFCURVE",
"366 511 CURVE",
"336 486 OFFCURVE",
"307 458 OFFCURVE",
"290 414 CURVE",
"321 395 OFFCURVE",
"359 376 OFFCURVE",
"380 306 CURVE",
"391 267 OFFCURVE",
"409 156 OFFCURVE",
"414 11 CURVE",
"414 1 OFFCURVE",
"338 -7 OFFCURVE",
"301 -11 CURVE",
"286 -8 OFFCURVE",
"268 1 OFFCURVE",
"265 16 CURVE",
"256 59 OFFCURVE",
"251 155 OFFCURVE",
"255 269 CURVE",
"256 299 OFFCURVE",
"226 319 OFFCURVE",
"207 328 CURVE",
"191 314 OFFCURVE",
"179 188 OFFCURVE",
"190 7 CURVE",
"190 -2 OFFCURVE",
"124 -9 OFFCURVE",
"61 -12 CURVE",
"53 -12 OFFCURVE",
"44 5 OFFCURVE",
"44 20 CURVE",
"45 106 OFFCURVE",
"45 310 OFFCURVE",
"54 601 CURVE",
"55 610 OFFCURVE",
"15 639 OFFCURVE",
"20 653 CURVE"
);
}
);
width = 447;
}
);
unicode = "004B,006B";
},
{
glyphname = L;
lastChange = "2023-04-24 01:53:46 +0000";
layers = (
{
layerId = "69FA6F11-E000-4957-8B5E-754D211BB72B";
paths = (
{
closed = 1;
nodes = (
"36 651 OFFCURVE",
"121 650 OFFCURVE",
"110 650 CURVE",
"124 650 OFFCURVE",
"133 464 OFFCURVE",
"137 376 CURVE",
"139 320 OFFCURVE",
"143 254 OFFCURVE",
"148 152 CURVE",
"167 146 OFFCURVE",
"246 144 OFFCURVE",
"274 160 CURVE",
"295 173 OFFCURVE",
"342 179 OFFCURVE",
"309 176 CURVE",
"297 143 OFFCURVE",
"331 103 OFFCURVE",
"331 29 CURVE",
"328 23 OFFCURVE",
"205 23 OFFCURVE",
"309 23 CURVE",
"290 23 OFFCURVE",
"201 13 OFFCURVE",
"238 -1 CURVE",
"183 -4 OFFCURVE",
"128 -6 OFFCURVE",
"150 -9 CURVE",
"126 -13 OFFCURVE",
"99 6 OFFCURVE",
"83 -12 CURVE",
"74 -15 OFFCURVE",
"58 6 OFFCURVE",
"48 69 CURVE",
"33 161 OFFCURVE",
"30 335 OFFCURVE",
"33 259 CURVE",
"33 318 OFFCURVE",
"21 433 OFFCURVE",
"25 650 CURVE"
);
}
);
width = 339;
}
);
unicode = "004C,006C";
},
{
glyphname = M;
lastChange = "2023-04-23 02:40:32 +0000";
layers = (
{
layerId = "69FA6F11-E000-4957-8B5E-754D211BB72B";
paths = (
{
closed = 1;
nodes = (
"45 661 OFFCURVE",
"175 584 OFFCURVE",
"266 488 CURVE",
"333 525 OFFCURVE",
"408 562 OFFCURVE",
"471 629 CURVE",
"479 631 OFFCURVE",
"489 572 OFFCURVE",
"487 554 CURVE",
"476 469 OFFCURVE",
"452 325 OFFCURVE",
"462 56 CURVE",
"462 48 OFFCURVE",
"418 42 OFFCURVE",
"402 40 CURVE",
"393 38 OFFCURVE",
"376 43 OFFCURVE",
"362 44 CURVE",
"358 73 OFFCURVE",
"352 197 OFFCURVE",
"351 340 CURVE",
"327 327 OFFCURVE",
"251 223 OFFCURVE",
"234 289 CURVE",
"226 319 OFFCURVE",
"197 335 OFFCURVE",
"221 425 CURVE",
"203 430 OFFCURVE",
"182 256 OFFCURVE",
"172 460 CURVE",
"158 481 OFFCURVE",
"138 270 OFFCURVE",
"140 494 CURVE",
"128 519 OFFCURVE",
"106 524 OFFCURVE",
"116 531 CURVE",
"75 470 OFFCURVE",
"150 366 OFFCURVE",
"165 183 CURVE",
"170 127 OFFCURVE",
"129 67 OFFCURVE",
"118 -3 CURVE",
"100 -12 OFFCURVE",
"61 -6 OFFCURVE",
"51 0 CURVE",
"25 68 OFFCURVE",
"23 261 OFFCURVE",
"27 541 CURVE",
"27 565 OFFCURVE",
"11 629 OFFCURVE",
"27 653 CURVE"
);
}
);
width = 507;
}
);
unicode = "004D,006D";
},
{
glyphname = N;
lastChange = "2023-04-24 02:15:30 +0000";
layers = (
{
layerId = "69FA6F11-E000-4957-8B5E-754D211BB72B";
paths = (
{
closed = 1;
nodes = (
"42 657 OFFCURVE",
"71 645 OFFCURVE",
"86 625 CURVE",
"121 604 OFFCURVE",
"156 594 OFFCURVE",
"180 560 CURVE",
"211 540 OFFCURVE",
"288 527 OFFCURVE",
"275 490 CURVE",
"287 507 OFFCURVE",
"293 538 OFFCURVE",
"306 627 CURVE",
"309 647 OFFCURVE",
"398 648 OFFCURVE",
"432 654 CURVE",
"444 641 OFFCURVE",
"472 571 OFFCURVE",
"478 534 CURVE",
"493 439 OFFCURVE",
"499 291 OFFCURVE",
"484 8 CURVE",
"477 1 OFFCURVE",
"362 -4 OFFCURVE",
"410 -7 CURVE",
"402 -25 OFFCURVE",
"381 -27 OFFCURVE",
"381 -21 CURVE",
"374 23 OFFCURVE",
"300 32 OFFCURVE",
"309 219 CURVE",
"311 262 OFFCURVE",
"273 283 OFFCURVE",
"263 345 CURVE",
"245 374 OFFCURVE",
"176 388 OFFCURVE",
"205 410 CURVE",
"219 413 OFFCURVE",
"237 420 OFFCURVE",
"236 437 CURVE",
"234 462 OFFCURVE",
"199 461 OFFCURVE",
"189 466 CURVE",
"169 456 OFFCURVE",
"159 438 OFFCURVE",
"162 398 CURVE",
"167 323 OFFCURVE",
"180 210 OFFCURVE",
"164 6 CURVE",
"161 -2 OFFCURVE",
"115 -10 OFFCURVE",
"88 -12 CURVE",
"60 -15 OFFCURVE",
"38 -6 OFFCURVE",
"38 4 CURVE",
"33 97 OFFCURVE",
"31 300 OFFCURVE",
"43 623 CURVE",
"52 631 OFFCURVE",
"6 654 OFFCURVE",
"25 657 CURVE"
);
}
);
width = 517;
}
);
unicode = "004E,006E";
},
{
glyphname = O;
lastChange = "2023-04-24 02:13:01 +0000";
layers = (
{
layerId = "69FA6F11-E000-4957-8B5E-754D211BB72B";
paths = (
{
closed = 1;
nodes = (
"241 434 OFFCURVE",
"203 422 OFFCURVE",
"195 389 CURVE",
"189 367 OFFCURVE",
"178 273 OFFCURVE",
"199 175 CURVE",
"203 153 OFFCURVE",
"238 135 OFFCURVE",
"252 128 CURVE",
"262 136 OFFCURVE",
"278 155 OFFCURVE",
"278 217 CURVE",
"278 263 OFFCURVE",
"264 313 OFFCURVE",
"269 420 CURVE",
"269 426 OFFCURVE",
"252 428 OFFCURVE",
"250 434 CURVE"
);
},
{
closed = 1;
nodes = (
"211 658 OFFCURVE",
"239 612 OFFCURVE",
"292 648 CURVE",
"313 663 OFFCURVE",
"345 656 OFFCURVE",
"356 604 CURVE",
"363 573 OFFCURVE",
"377 523 OFFCURVE",
"379 495 CURVE",
"382 423 OFFCURVE",
"358 330 OFFCURVE",
"360 151 CURVE",
"360 103 OFFCURVE",
"332 68 OFFCURVE",
"319 19 CURVE",
"298 7 OFFCURVE",
"256 0 OFFCURVE",
"249 -6 CURVE",
"231 -5 OFFCURVE",
"199 -8 OFFCURVE",
"182 -10 CURVE",
"155 -13 OFFCURVE",
"108 7 OFFCURVE",
"88 34 CURVE",
"60 49 OFFCURVE",
"36 98 OFFCURVE",
"31 200 CURVE",
"28 260 OFFCURVE",
"17 379 OFFCURVE",
"30 531 CURVE",
"35 580 OFFCURVE",
"49 586 OFFCURVE",
"71 631 CURVE",
"106 646 OFFCURVE",
"132 657 OFFCURVE",
"190 658 CURVE"
);
}
);
width = 399;
}
);
unicode = "004F,006F";
},
{
glyphname = P;
lastChange = "2023-04-24 01:38:10 +0000";
layers = (
{
layerId = "69FA6F11-E000-4957-8B5E-754D211BB72B";
paths = (
{
closed = 1;
nodes = (
"138 651 OFFCURVE",
"213 650 OFFCURVE",
"331 650 CURVE",
"347 650 OFFCURVE",
"357 608 OFFCURVE",
"391 650 CURVE",
"404 665 OFFCURVE",
"423 662 OFFCURVE",
"427 388 CURVE",
"428 346 OFFCURVE",
"391 259 OFFCURVE",
"373 245 CURVE",
"350 264 OFFCURVE",
"258 155 OFFCURVE",
"287 136 CURVE",
"305 167 OFFCURVE",
"186 168 OFFCURVE",
"233 204 CURVE",
"263 226 OFFCURVE",
"289 237 OFFCURVE",
"283 255 CURVE",
"270 259 OFFCURVE",
"249 262 OFFCURVE",
"248 273 CURVE",
"236 279 OFFCURVE",
"223 307 OFFCURVE",
"231 338 CURVE",
"239 341 OFFCURVE",
"280 353 OFFCURVE",
"289 376 CURVE",
"294 389 OFFCURVE",
"300 420 OFFCURVE",
"299 463 CURVE",
"298 506 OFFCURVE",
"199 519 OFFCURVE",
"272 594 CURVE",
"242 598 OFFCURVE",
"210 607 OFFCURVE",
"190 592 CURVE",
"185 571 OFFCURVE",
"184 497 OFFCURVE",
"188 480 CURVE",
"180 404 OFFCURVE",
"186 267 OFFCURVE",
"167 38 CURVE",
"166 24 OFFCURVE",
"139 16 OFFCURVE",
"119 -1 CURVE",
"91 -10 OFFCURVE",
"62 -13 OFFCURVE",
"60 5 CURVE",
"51 74 OFFCURVE",
"46 294 OFFCURVE",
"56 601 CURVE",
"57 613 OFFCURVE",
"17 643 OFFCURVE",
"20 651 CURVE"
);
}
);
width = 447;
}
);
unicode = "0050,0070";
},
{
glyphname = Q;
lastChange = "2023-04-24 02:13:20 +0000";
layers = (
{
layerId = "69FA6F11-E000-4957-8B5E-754D211BB72B";
paths = (
{
closed = 1;
nodes = (
"223 523 OFFCURVE",
"189 482 OFFCURVE",
"177 353 CURVE",
"169 274 OFFCURVE",
"171 204 OFFCURVE",
"225 130 CURVE",
"260 125 OFFCURVE",
"290 178 OFFCURVE",
"298 272 CURVE",
"305 355 OFFCURVE",
"260 430 OFFCURVE",
"232 523 CURVE"
);
},
{
closed = 1;
nodes = (
"210 659 OFFCURVE",
"308 599 OFFCURVE",
"367 477 CURVE",
"394 421 OFFCURVE",
"414 364 OFFCURVE",
"410 269 CURVE",
"409 245 OFFCURVE",
"402 222 OFFCURVE",
"375 177 CURVE",
"364 159 OFFCURVE",
"345 148 OFFCURVE",
"335 118 CURVE",
"345 108 OFFCURVE",
"355 97 OFFCURVE",
"367 71 CURVE",
"379 46 OFFCURVE",
"387 31 OFFCURVE",
"403 -5 CURVE",
"418 -20 OFFCURVE",
"440 -26 OFFCURVE",
"446 -39 CURVE",
"452 -43 OFFCURVE",
"409 -51 OFFCURVE",
"390 -61 CURVE",
"377 -68 OFFCURVE",
"336 -72 OFFCURVE",
"333 -84 CURVE",
"325 -87 OFFCURVE",
"312 -57 OFFCURVE",
"303 -22 CURVE",
"296 -11 OFFCURVE",
"286 -9 OFFCURVE",
"273 3 CURVE",
"260 7 OFFCURVE",
"150 -4 OFFCURVE",
"110 -9 CURVE",
"94 -11 OFFCURVE",
"45 16 OFFCURVE",
"72 75 CURVE",
"48 129 OFFCURVE",
"24 140 OFFCURVE",
"20 490 CURVE",
"19 560 OFFCURVE",
"105 608 OFFCURVE",
"181 658 CURVE"
);
}
);
width = 455;
}
);
unicode = "0051,0071";
},
{
glyphname = R;
lastChange = "2023-04-24 01:38:56 +0000";
layers = (
{
layerId = "69FA6F11-E000-4957-8B5E-754D211BB72B";
paths = (
{
closed = 1;
nodes = (
"246 551 OFFCURVE",
"220 505 OFFCURVE",
"220 525 CURVE",
"213 545 OFFCURVE",
"206 551 OFFCURVE",
"209 558 CURVE",
"209 538 OFFCURVE",
"220 512 OFFCURVE",
"238 463 CURVE",
"261 451 OFFCURVE",
"279 446 OFFCURVE",
"297 444 CURVE",
"320 450 OFFCURVE",
"329 477 OFFCURVE",
"326 515 CURVE",
"324 537 OFFCURVE",
"290 538 OFFCURVE",
"263 551 CURVE"
);
},
{
closed = 1;
nodes = (
"113 660 OFFCURVE",
"213 651 OFFCURVE",
"314 651 CURVE",
"330 651 OFFCURVE",
"370 650 OFFCURVE",
"380 650 CURVE",
"387 601 OFFCURVE",
"416 518 OFFCURVE",
"402 415 CURVE",
"399 394 OFFCURVE",
"374 374 OFFCURVE",
"365 328 CURVE",
"383 306 OFFCURVE",
"402 284 OFFCURVE",
"400 229 CURVE",
"399 203 OFFCURVE",
"391 107 OFFCURVE",
"389 9 CURVE",
"384 1 OFFCURVE",
"298 -2 OFFCURVE",
"269 -1 CURVE",
"262 2 OFFCURVE",
"248 12 OFFCURVE",
"241 65 CURVE",
"236 109 OFFCURVE",
"233 143 OFFCURVE",
"229 226 CURVE",
"224 239 OFFCURVE",
"216 252 OFFCURVE",
"205 270 CURVE",
"197 273 OFFCURVE",
"174 273 OFFCURVE",
"166 272 CURVE",
"158 223 OFFCURVE",
"161 141 OFFCURVE",
"168 7 CURVE",
"164 1 OFFCURVE",
"113 -4 OFFCURVE",
"87 -7 CURVE",
"76 -7 OFFCURVE",
"45 -5 OFFCURVE",
"43 -5 CURVE",
"38 73 OFFCURVE",
"40 284 OFFCURVE",
"42 168 CURVE",
"42 228 OFFCURVE",
"44 207 OFFCURVE",
"46 435 CURVE",
"47 481 OFFCURVE",
"17 546 OFFCURVE",
"20 651 CURVE"
);
}
);
width = 426;
}
);
unicode = "0052,0072";
},
{
glyphname = S;
lastChange = "2023-04-24 02:14:30 +0000";
layers = (
{
layerId = "69FA6F11-E000-4957-8B5E-754D211BB72B";
paths = (
{
closed = 1;
nodes = (
"189 654 OFFCURVE",
"255 665 OFFCURVE",
"332 646 CURVE",
"357 640 OFFCURVE",
"375 614 OFFCURVE",
"368 569 CURVE",
"365 543 OFFCURVE",
"351 526 OFFCURVE",
"338 499 CURVE",
"312 492 OFFCURVE",
"277 503 OFFCURVE",
"267 517 CURVE",
"250 527 OFFCURVE",
"232 529 OFFCURVE",
"222 536 CURVE",
"206 537 OFFCURVE",
"192 529 OFFCURVE",
"189 511 CURVE",
"186 493 OFFCURVE",
"223 476 OFFCURVE",
"237 439 CURVE",
"281 386 OFFCURVE",
"360 339 OFFCURVE",
"355 256 CURVE",
"354 230 OFFCURVE",
"328 203 OFFCURVE",
"305 141 CURVE",
"293 109 OFFCURVE",
"246 85 OFFCURVE",
"220 30 CURVE",
"200 10 OFFCURVE",
"158 6 OFFCURVE",
"147 -7 CURVE",
"120 -8 OFFCURVE",
"81 10 OFFCURVE",
"63 34 CURVE",
"38 48 OFFCURVE",
"22 74 OFFCURVE",
"9 105 CURVE",
"-3 134 OFFCURVE",
"-11 164 OFFCURVE",
"45 209 CURVE",
"77 215 OFFCURVE",
"101 190 OFFCURVE",
"119 174 CURVE",
"132 161 OFFCURVE",
"156 156 OFFCURVE",
"166 141 CURVE",
"184 135 OFFCURVE",
"197 157 OFFCURVE",
"200 177 CURVE",
"206 213 OFFCURVE",
"150 218 OFFCURVE",
"132 267 CURVE",
"98 303 OFFCURVE",
"65 335 OFFCURVE",
"66 426 CURVE",
"67 459 OFFCURVE",
"72 501 OFFCURVE",
"103 577 CURVE",
"113 603 OFFCURVE",
"90 626 OFFCURVE",
"113 647 CURVE"
);
}
);
width = 390;
}
);
unicode = "0053,0073";
},
{
glyphname = T;
lastChange = "2023-04-24 03:05:59 +0000";
layers = (
{
layerId = "69FA6F11-E000-4957-8B5E-754D211BB72B";
paths = (
{
closed = 1;
nodes = (
"132 650 OFFCURVE",
"238 649 OFFCURVE",
"405 650 CURVE",
"411 621 OFFCURVE",
"416 584 OFFCURVE",
"404 571 CURVE",
"378 581 OFFCURVE",
"338 580 OFFCURVE",
"312 568 CURVE",
"302 555 OFFCURVE",
"295 534 OFFCURVE",
"301 485 CURVE",
"305 452 OFFCURVE",
"298 245 OFFCURVE",
"311 0 CURVE",
"311 -7 OFFCURVE",
"205 -7 OFFCURVE",
"169 0 CURVE",
"161 6 OFFCURVE",
"159 21 OFFCURVE",
"158 48 CURVE",
"154 136 OFFCURVE",
"148 281 OFFCURVE",
"153 509 CURVE",
"153 529 OFFCURVE",
"86 534 OFFCURVE",
"49 534 CURVE",
"28 534 OFFCURVE",
"16 556 OFFCURVE",
"24 548 CURVE",
"30 567 OFFCURVE",
"11 591 OFFCURVE",
"17 650 CURVE"
);
}
);
width = 431;
}
);
unicode = "0054,0074";
},
{
glyphname = U;
lastChange = "2023-04-24 02:04:10 +0000";
layers = (
{
layerId = "69FA6F11-E000-4957-8B5E-754D211BB72B";
paths = (
{
closed = 1;
nodes = (
"28 652 OFFCURVE",
"81 651 OFFCURVE",
"108 651 CURVE",
"119 651 OFFCURVE",
"131 514 OFFCURVE",
"146 379 CURVE",
"172 350 OFFCURVE",
"197 316 OFFCURVE",
"261 295 CURVE",
"299 300 OFFCURVE",
"304 461 OFFCURVE",
"320 635 CURVE",
"321 639 OFFCURVE",
"401 643 OFFCURVE",
"427 641 CURVE",
"435 627 OFFCURVE",
"442 553 OFFCURVE",
"435 219 CURVE",
"434 145 OFFCURVE",
"393 79 OFFCURVE",
"368 0 CURVE",
"328 -13 OFFCURVE",
"202 -19 OFFCURVE",
"254 14 CURVE",
"235 28 OFFCURVE",
"143 39 OFFCURVE",
"169 66 CURVE",
"133 79 OFFCURVE",
"46 123 OFFCURVE",
"68 218 CURVE",
"53 296 OFFCURVE",
"16 474 OFFCURVE",
"16 652 CURVE"
);
}
);
width = 462;
}
);
unicode = "0055,0075";
},
{
glyphname = V;
lastChange = "2023-04-24 03:03:52 +0000";
layers = (
{
layerId = "69FA6F11-E000-4957-8B5E-754D211BB72B";
paths = (
{
closed = 1;
nodes = (
"32 653 OFFCURVE",
"51 633 OFFCURVE",
"97 620 CURVE",
"134 610 OFFCURVE",
"156 606 OFFCURVE",
"178 476 CURVE",
"185 439 OFFCURVE",
"192 399 OFFCURVE",
"198 360 CURVE",
"203 361 OFFCURVE",
"223 395 OFFCURVE",
"244 517 CURVE",
"250 549 OFFCURVE",
"260 580 OFFCURVE",
"268 645 CURVE",
"274 650 OFFCURVE",
"357 650 OFFCURVE",
"393 651 CURVE",
"404 639 OFFCURVE",
"418 621 OFFCURVE",
"414 575 CURVE",
"394 539 OFFCURVE",
"357 482 OFFCURVE",
"325 251 CURVE",
"314 167 OFFCURVE",
"277 91 OFFCURVE",
"273 0 CURVE",
"267 -7 OFFCURVE",
"181 -10 OFFCURVE",
"206 -7 CURVE",
"192 -4 OFFCURVE",
"169 35 OFFCURVE",
"153 98 CURVE",
"133 179 OFFCURVE",
"86 319 OFFCURVE",
"64 503 CURVE",
"60 539 OFFCURVE",
"16 577 OFFCURVE",
"20 648 CURVE"
);
}
);
width = 435;
}
);
unicode = "0056,0076";
},
{
glyphname = W;
lastChange = "2023-04-24 01:58:23 +0000";
layers = (
{
layerId = "69FA6F11-E000-4957-8B5E-754D211BB72B";
paths = (
{
closed = 1;
nodes = (
"36 636 LINE",
"48 636 OFFCURVE",
"69 624 OFFCURVE",
"114 606 CURVE",
"136 597 OFFCURVE",
"171 601 OFFCURVE",
"190 602 CURVE",
"206 590 OFFCURVE",
"216 579 OFFCURVE",
"219 540 CURVE",
"222 491 OFFCURVE",
"224 435 OFFCURVE",
"234 455 CURVE",
"247 483 OFFCURVE",
"252 490 OFFCURVE",
"263 547 CURVE",
"269 576 OFFCURVE",
"288 600 OFFCURVE",
"296 649 CURVE",
"349 656 OFFCURVE",
"402 653 OFFCURVE",
"436 484 CURVE",
"443 444 OFFCURVE",
"448 405 OFFCURVE",
"456 372 CURVE",
"476 375 OFFCURVE",
"495 420 OFFCURVE",
"497 480 CURVE",
"499 528 OFFCURVE",
"492 538 OFFCURVE",
"487 627 CURVE",
"518 642 LINE",
"540 634 OFFCURVE",
"609 626 OFFCURVE",
"605 608 CURVE",
"601 585 OFFCURVE",
"557 520 OFFCURVE",
"528 268 CURVE",
"516 165 OFFCURVE",
"476 99 OFFCURVE",
"461 7 CURVE",
"451 -2 OFFCURVE",
"425 -4 OFFCURVE",
"398 -3 CURVE",
"369 -2 OFFCURVE",
"344 14 OFFCURVE",
"331 60 CURVE",
"327 72 OFFCURVE",
"326 87 OFFCURVE",
"318 140 CURVE",
"315 155 OFFCURVE",
"308 177 OFFCURVE",
"302 203 CURVE",
"291 209 OFFCURVE",
"275 174 OFFCURVE",
"264 135 CURVE",
"253 96 OFFCURVE",
"234 53 OFFCURVE",
"223 0 CURVE",
"215 -9 OFFCURVE",
"196 -18 OFFCURVE",
"168 -16 CURVE",
"156 -15 OFFCURVE",
"133 -3 OFFCURVE",
"101 10 CURVE",
"85 17 OFFCURVE",
"41 34 OFFCURVE",
"34 62 CURVE",
"28 84 OFFCURVE",
"15 330 OFFCURVE",
"22 184 CURVE",
"22 176 OFFCURVE",
"20 338 OFFCURVE",
"40 552 CURVE",
"42 574 OFFCURVE",
"72 588 OFFCURVE",
"96 594 CURVE"
);
}
);
width = 605;
}
);
unicode = "0057,0077";
},
{
glyphname = X;
lastChange = "2023-04-24 01:57:46 +0000";
layers = (
{
layerId = "69FA6F11-E000-4957-8B5E-754D211BB72B";
paths = (
{
closed = 1;
nodes = (
"95 661 OFFCURVE",
"210 576 OFFCURVE",
"269 495 CURVE",
"334 529 OFFCURVE",
"401 573 OFFCURVE",
"464 660 CURVE",
"471 662 OFFCURVE",
"483 641 OFFCURVE",
"484 611 CURVE",
"484 586 OFFCURVE",
"430 480 OFFCURVE",
"342 370 CURVE",
"376 348 OFFCURVE",
"474 226 OFFCURVE",
"511 145 CURVE",
"534 137 OFFCURVE",
"546 120 OFFCURVE",
"538 100 CURVE",
"524 87 OFFCURVE",
"483 58 OFFCURVE",
"468 51 CURVE",
"432 60 OFFCURVE",
"350 182 OFFCURVE",
"298 298 CURVE",
"258 273 OFFCURVE",
"139 125 OFFCURVE",
"102 -1 CURVE",
"67 -10 OFFCURVE",
"19 20 OFFCURVE",
"16 51 CURVE",
"14 65 OFFCURVE",
"143 231 OFFCURVE",
"204 359 CURVE",
"134 424 OFFCURVE",
"77 510 OFFCURVE",
"52 612 CURVE",
"48 631 OFFCURVE",
"84 635 OFFCURVE",
"82 652 CURVE"
);
}
);
width = 552;
}
);
unicode = "0058,0078";
},
{
glyphname = Y;
lastChange = "2023-04-24 03:03:32 +0000";
layers = (
{
layerId = "69FA6F11-E000-4957-8B5E-754D211BB72B";
paths = (
{
closed = 1;
nodes = (
"16 644 OFFCURVE",
"127 606 OFFCURVE",
"94 636 CURVE",
"112 650 OFFCURVE",
"172 643 OFFCURVE",
"225 563 CURVE",
"240 541 OFFCURVE",
"258 531 OFFCURVE",
"284 507 CURVE",
"308 534 OFFCURVE",
"368 571 OFFCURVE",
"387 652 CURVE",
"408 659 OFFCURVE",
"434 639 OFFCURVE",
"444 618 CURVE",
"453 599 OFFCURVE",
"469 577 OFFCURVE",
"454 511 CURVE",
"447 474 OFFCURVE",
"406 429 OFFCURVE",
"382 364 CURVE",
"350 343 OFFCURVE",
"313 335 OFFCURVE",
"296 307 CURVE",
"282 238 OFFCURVE",
"271 150 OFFCURVE",
"280 0 CURVE",
"266 -8 OFFCURVE",
"232 -9 OFFCURVE",
"214 -17 CURVE",
"187 -19 OFFCURVE",
"154 -4 OFFCURVE",
"148 41 CURVE",
"142 90 OFFCURVE",
"147 148 OFFCURVE",
"151 341 CURVE",
"126 376 OFFCURVE",
"101 387 OFFCURVE",
"80 456 CURVE",
"68 496 OFFCURVE",
"8 555 OFFCURVE",
"4 636 CURVE"
);
}
);
width = 480;
}
);
unicode = "0059,0079";
},
{
glyphname = Z;
lastChange = "2023-04-24 01:42:53 +0000";
layers = (
{
layerId = "69FA6F11-E000-4957-8B5E-754D211BB72B";
paths = (
{
closed = 1;
nodes = (
"114 650 OFFCURVE",
"230 650 OFFCURVE",
"392 650 CURVE",
"399 642 OFFCURVE",
"403 630 OFFCURVE",
"405 586 CURVE",
"406 546 OFFCURVE",
"397 494 OFFCURVE",
"348 282 CURVE",
"326 258 OFFCURVE",
"297 226 OFFCURVE",
"293 143 CURVE",
"315 129 OFFCURVE",
"395 141 OFFCURVE",
"426 135 CURVE",
"433 128 OFFCURVE",
"434 111 OFFCURVE",
"432 73 CURVE",
"431 47 OFFCURVE",
"425 29 OFFCURVE",
"411 -4 CURVE",
"398 -4 OFFCURVE",
"210 -3 OFFCURVE",
"36 0 CURVE",
"30 24 OFFCURVE",
"21 36 OFFCURVE",
"29 75 CURVE",
"33 95 OFFCURVE",
"47 137 OFFCURVE",
"70 198 CURVE",
"85 216 OFFCURVE",
"94 234 OFFCURVE",
"121 274 CURVE",
"137 297 OFFCURVE",
"146 313 OFFCURVE",
"169 365 CURVE",
"178 386 OFFCURVE",
"185 410 OFFCURVE",
"207 449 CURVE",
"218 469 OFFCURVE",
"235 473 OFFCURVE",
"232 495 CURVE",
"223 514 OFFCURVE",
"114 513 OFFCURVE",
"76 514 CURVE",
"64 509 OFFCURVE",
"60 501 OFFCURVE",
"51 484 CURVE",
"39 487 OFFCURVE",
"28 507 OFFCURVE",
"23 549 CURVE",
"19 575 OFFCURVE",
"19 600 OFFCURVE",
"24 653 CURVE",
"29 661 OFFCURVE",
"15 646 OFFCURVE",
"23 650 CURVE"
);
}
);
width = 453;
}
);
unicode = "005A,007A";
},
